# xmcd
#
# Track frame offsets:
#	150
#	16078
#	31237
#	46377
#	72824
#	88035
#	103789
#	118494
#	136629
#	153512
#	174984
#
# Disc length: 2566 seconds
#
# Revision: 2
# Processed by: cddbd v1.5.2PL0 Copyright (c) Steve Scherf et al.
# Submitted via: audiograbber 1.83.01
#
DISCID=870a040b
DTITLE=Blackboard Blues Band - Night School
DYEAR=2002
DGENRE=R&B
TTITLE0=Think
TTITLE1=Heat Wave
TTITLE2=My Girl
TTITLE3=Flip, Flop and Fly
TTITLE4=25 Miles
TTITLE5=The Tracks Of My Tears
TTITLE6=I Heard It Through The Grapevine
TTITLE7=Freeway Of Love
TTITLE8=Get Ready
TTITLE9=Midnight Train To Georgia
TTITLE10=The Letter
EXTD=
EXTT0=
EXTT1=
EXTT2=
EXTT3=
EXTT4=
EXTT5=
EXTT6=
EXTT7=
EXTT8=
EXTT9=
EXTT10=
PLAYORDER=
